<?xml version="1.0" standalone="no"?><!DOCTYPE svg PUBLIC "-//W3C//DTD SVG 1.1//EN" "http://www.w3.org/Graphics/SVG/1.1/DTD/svg11.dtd" ><svg xmlns="http://www.w3.org/2000/svg"><metadata>Generated by Glyphter</metadata><defs><font id="Boardcast" horiz-adv-x="0"><font-face units-per-em="1024" ascent="1024" descent="0" font-family="Boardcast" font-weight="normal" /><missing-glyph horiz-adv-x="0" /><glyph unicode="&#x0041;" d="M980.782,931.605C980.782,931.605,43.235,931.605,43.235,931.605C19.344,931.605,0,912.262,0,888.387C0,864.513,19.344,845.152,43.235,845.152C43.235,845.152,96.564,845.152,96.564,845.152C96.564,845.152,96.564,294.62,96.564,294.62C96.564,276.723,111.085,262.202,128.999,262.202C128.999,262.202,439.482,262.202,439.482,262.202C439.482,262.202,333.306,156.044,333.306,156.044C320.663,143.366,320.663,122.868,333.306,110.19C345.95,97.547,366.482,97.547,379.143,110.19C379.143,110.19,507.918,238.948,507.918,238.948C507.918,238.948,644.84,102.008,644.84,102.008C651.179,95.687,659.482,92.5,667.784,92.5C676.052,92.5,684.372,95.687,690.694,102.008C703.337,114.669,703.337,135.184,690.694,147.844C690.694,147.844,576.301,262.237,576.301,262.237C576.301,262.237,895.018,262.237,895.018,262.237C912.932,262.237,927.436,276.757,927.436,294.654C927.436,294.654,927.436,845.17,927.436,845.17C927.436,845.17,980.799,845.17,980.799,845.17C1004.656,845.17,1024,864.531,1024,888.405C1024,912.279,1004.639,931.605,980.782,931.605C980.782,931.605,980.782,931.605,980.782,931.605M862.6,327.037C862.6,327.037,161.382,327.037,161.382,327.037C161.382,327.037,161.382,845.17,161.382,845.17C161.382,845.17,862.6,845.17,862.6,845.17C862.6,845.17,862.6,327.037,862.6,327.037C862.6,327.037,862.6,327.037,862.6,327.037" class="icon-boardcast"/><glyph unicode="&#x0042;" d="M196.877,171.908C197.756,163.848,195.124,155.483,188.944,149.298C178.141,138.495,160.612,138.49,149.804,149.298C138.985,160.12,139.001,177.64,149.804,188.446C155.976,194.634,164.349,197.264,172.403,196.377C172.403,196.377,261.011,284.987,261.011,284.987C261.011,284.987,210.786,335.212,210.786,335.212C210.786,335.212,73.701,234.692,73.701,234.692C73.701,234.692,40.562,83.003,40.562,83.003C30.426,82.654,20.391,78.617,12.659,70.881C-3.553,54.666,-3.553,28.374,12.659,12.161C28.872,-4.054,55.159,-4.054,71.379,12.161C79.115,19.903,83.146,29.933,83.501,40.064C83.501,40.064,235.19,73.2,235.19,73.2C235.19,73.2,335.7,210.291,335.7,210.291C335.7,210.291,285.47,260.524,285.47,260.524C285.47,260.524,196.877,171.908,196.877,171.908C196.877,171.908,196.877,171.908,196.877,171.908M977.187,985.865C917.886,1040.096,825.846,1035.995,771.611,976.699C771.611,976.699,254.834,373.367,254.834,373.367C254.834,373.367,373.858,254.338,373.858,254.338C373.858,254.338,977.187,771.115,977.187,771.115C980.287,773.96,983.475,777.124,986.358,780.287C1040.599,839.588,1036.488,931.63,977.187,985.865C977.187,985.865,977.187,985.865,977.187,985.865" class="icon-calligraphy"/><glyph unicode="&#x0043;" d="M943.2,943.227C848.48,1037.96,777.404,1023.742,777.404,1023.742C777.404,1023.742,445.784,692.136,445.784,692.136C445.784,692.136,66.785,313.149,66.785,313.149C66.785,313.149,0.5,0.5,0.5,0.5C0.5,0.5,313.11,66.811,313.11,66.811C313.11,66.811,692.109,445.81,692.109,445.81C692.109,445.81,1023.729,777.391,1023.729,777.391C1023.729,777.377,1037.96,848.467,943.2,943.227C943.2,943.227,943.2,943.227,943.2,943.227M294.507,104.397C294.507,104.397,187.945,81.449,187.945,81.449C177.639,100.708,165.273,119.941,142.587,142.613C119.915,165.286,100.669,177.653,81.436,187.985C81.436,187.985,104.41,294.533,104.41,294.533C104.41,294.533,135.209,325.359,135.209,325.359C135.209,325.359,193.21,324.203,258.667,258.693C324.151,193.223,325.332,135.196,325.332,135.196C325.332,135.196,294.507,104.397,294.507,104.397C294.507,104.397,294.507,104.397,294.507,104.397" class="icon-crayon"/><glyph unicode="&#x0044;" d="M960,256C960,256,896,256,896,256C896,256,896,736,896,736C896,736,768,608,768,608C768,608,768,256,768,256C768,256,320,256,320,256C320,256,934.815,921.568,934.815,921.568C934.815,921.568,889.568,966.817,889.568,966.817C889.568,966.817,256,288,256,288C256,288,256,768,256,768C256,768,576,768,576,768C576,768,699.583,896,699.583,896C699.583,896,256,896,256,896C256,896,256,960,256,960C256,995.36,227.36,1024,192,1024C156.64,1024,128,995.36,128,960C128,960,128,896,128,896C128,896,64,896,64,896C28.64,896,0,867.36,0,832C0,796.64,28.64,768,64,768C64,768,128,768,128,768C128,768,128,192,128,192C128,192,128,128,128,128C128,128,768,128,768,128C768,128,768,64,768,64C768,28.672,796.64,0,832,0C867.36,0,896,28.64,896,64C896,64,896,128,896,128C896,128,960,128,960,128C995.36,128,1024,156.64,1024,192C1024,227.328,995.36,256,960,256C960,256,960,256,960,256" class="icon-crop"/><glyph unicode="&#x0045;" d="M512,1024C230.4,1024,0,793.6,0,512C0,230.4,230.4,0,512,0C793.6,0,1024,230.4,1024,512C1024,793.6,793.6,1024,512,1024C512,1024,512,1024,512,1024" class="icon-ellipse"/><glyph unicode="&#x0046;" d="M992.747,731.177C992.747,731.177,711.278,1012.643,711.278,1012.643C696.137,1027.784,671.586,1027.787,656.445,1012.643C656.445,1012.643,219.254,575.449,219.254,575.449C219.254,575.449,555.553,239.15,555.553,239.15C555.553,239.15,992.747,676.341,992.747,676.341C1007.888,691.479,1007.888,716.03,992.747,731.177C992.747,731.177,992.747,731.177,992.747,731.177M149.801,505.999C149.801,505.999,31.358,387.556,31.358,387.556C16.214,372.418,16.214,347.867,31.358,332.729C31.358,332.729,312.827,51.251,312.827,51.251C327.968,36.113,352.519,36.119,367.66,51.251C367.66,51.251,486.1,169.697,486.1,169.697C486.1,169.697,149.801,505.999,149.801,505.999C149.801,505.999,149.801,505.999,149.801,505.999M427.097,0C427.097,0,972.19,0,972.19,0C972.19,0,972.19,79.79,972.19,79.79C972.19,79.79,520.034,79.79,520.034,79.79C520.034,79.79,427.097,0,427.097,0" class="icon-erase"/><glyph unicode="&#x0047;" d="M893.508,770.663C893.508,770.663,685.506,978.672,685.506,978.672C663.274,1000.895,633.931,1015.346,597.493,1022.006C597.493,1022.006,597.493,682.667,597.493,682.667C597.493,682.667,936.837,682.667,936.837,682.667C930.17,719.122,915.716,748.45,893.508,770.663C893.508,770.663,893.508,770.663,893.508,770.663M576.165,597.339C558.379,597.339,543.266,603.557,530.825,616.003C518.379,628.442,512.163,643.555,512.163,661.336C512.163,661.336,512.163,1024,512.163,1024C512.163,1024,149.497,1024,149.497,1024C131.722,1024,116.61,1017.782,104.166,1005.336C91.721,992.897,85.5,977.785,85.5,960.003C85.5,960.003,85.5,63.999,85.5,63.999C85.5,46.213,91.721,31.101,104.166,18.659C116.612,6.225,131.722,0,149.499,0C149.499,0,874.844,0,874.844,0C892.616,0,907.719,6.225,920.16,18.659C932.601,31.11,938.826,46.213,938.826,63.999C938.826,63.999,938.826,597.339,938.826,597.339C938.826,597.339,576.165,597.339,576.165,597.339C576.165,597.339,576.165,597.339,576.165,597.339" class="icon-file"/><glyph unicode="&#x0048;" d="M486.399,572.228C486.399,553.376,471.12,538.095,452.266,538.095C452.266,538.095,34.133,538.095,34.133,538.095C15.279,538.093,0,553.376,0,572.228C0,572.228,0,990.363,0,990.363C0,1009.215,15.279,1024.496,34.133,1024.496C34.133,1024.496,452.266,1024.496,452.266,1024.496C471.12,1024.496,486.399,1009.215,486.399,990.363C486.399,990.363,486.399,572.228,486.399,572.228C486.399,572.228,486.399,572.228,486.399,572.228M1024,572.228C1024,553.376,1008.721,538.095,989.867,538.095C989.867,538.095,571.732,538.095,571.732,538.095C552.878,538.095,537.599,553.376,537.599,572.228C537.599,572.228,537.599,990.363,537.599,990.363C537.599,1009.215,552.878,1024.496,571.732,1024.496C571.732,1024.496,989.865,1024.496,989.865,1024.496C1008.719,1024.496,1023.998,1009.215,1023.998,990.363C1023.998,990.363,1023.998,572.228,1023.998,572.228C1023.998,572.228,1024,572.228,1024,572.228C1024,572.228,1024,572.228,1024,572.228M486.399,34.633C486.399,15.781,471.12,0.5,452.266,0.5C452.266,0.5,34.133,0.5,34.133,0.5C15.279,0.498,0,15.781,0,34.633C0,34.633,0,452.768,0,452.768C0,471.62,15.279,486.901,34.133,486.901C34.133,486.901,452.266,486.901,452.266,486.901C471.12,486.901,486.399,471.62,486.399,452.768C486.399,452.768,486.399,34.633,486.399,34.633C486.399,34.633,486.399,34.633,486.399,34.633M1024,34.633C1024,15.781,1008.721,0.5,989.867,0.5C989.867,0.5,571.732,0.5,571.732,0.5C552.878,0.5,537.599,15.781,537.599,34.633C537.599,34.633,537.599,452.768,537.599,452.768C537.599,471.62,552.878,486.901,571.732,486.901C571.732,486.901,989.865,486.901,989.865,486.901C1008.719,486.901,1023.998,471.62,1023.998,452.768C1023.998,452.768,1023.998,34.633,1023.998,34.633C1023.998,34.633,1024,34.633,1024,34.633C1024,34.633,1024,34.633,1024,34.633" class="icon-gallery"/><glyph unicode="&#x0049;" d="M5.466,79.375C0.846,74.705,-1.019,67.969,0.541,61.586C2.1,55.205,6.864,50.092,13.119,48.082C13.119,48.082,121.007,13.407,121.007,13.407C122.907,12.796,124.857,12.5,126.789,12.5C131.761,12.5,136.622,14.463,140.23,18.105C140.23,18.105,162.767,40.885,162.767,40.885C162.767,40.885,65.068,139.621,65.068,139.621C65.068,139.621,5.466,79.375,5.466,79.375C5.466,79.375,5.466,79.375,5.466,79.375M81.311,194.879C81.311,194.879,214.771,60.001,214.771,60.001C266.736,105.403,322.407,129.245,377.136,129.245C400.621,129.245,423.735,124.689,445.973,115.766C445.973,115.766,136.326,428.703,136.326,428.703C165.587,354.074,145.687,270.481,81.311,194.879C81.311,194.879,81.311,194.879,81.311,194.879M1018.529,820.566C1018.529,820.566,834.191,1006.858,834.191,1006.858C827.335,1013.793,816.32,1014.369,808.768,1008.181C808.768,1008.181,160.162,476.289,160.162,476.289C160.162,476.289,493.298,139.617,493.298,139.617C493.298,139.617,1019.837,795.436,1019.837,795.436C1025.852,802.925,1025.291,813.735,1018.529,820.566C1018.529,820.566,1018.529,820.566,1018.529,820.566" class="icon-marker"/><glyph unicode="&#x004a;" d="M907.737,787.87C924.091,771.536,924.091,745.073,907.737,728.736C907.737,728.736,288.63,161.49,288.63,161.49C288.63,161.49,201.846,81.979,201.846,81.979C201.846,81.979,79.887,203.951,79.887,203.951C79.887,203.951,159.399,290.734,159.399,290.734C159.399,290.734,662.316,839.64,662.316,839.64C662.316,839.64,643.55,858.423,643.55,858.423C643.55,858.423,406.167,621.021,406.167,621.021C398.008,612.862,384.759,612.862,376.6,621.021C376.6,621.021,373.355,624.265,373.355,624.265C365.196,632.424,365.196,645.673,373.355,653.832C373.355,653.832,700.893,981.338,700.893,981.338C709.068,989.497,722.301,989.497,730.476,981.338C730.476,981.338,733.721,978.109,733.721,978.109C741.88,969.95,741.88,956.701,733.721,948.542C733.721,948.542,687.924,902.746,687.924,902.746C687.924,902.746,704.738,885.913,704.738,885.913C704.738,885.913,726.661,909.822,726.661,909.822C742.979,926.156,769.441,926.156,785.795,909.822C785.795,909.822,907.737,787.87,907.737,787.87C907.737,787.87,907.737,787.87,907.737,787.87M0.5,23.109C0.5,23.109,21.073,2.5,21.073,2.5C21.073,2.5,187.531,73.784,187.531,73.784C187.531,73.784,71.748,189.567,71.748,189.567C71.748,189.567,0.5,23.109,0.5,23.109C0.5,23.109,0.5,23.109,0.5,23.109M887.552,1021.848C887.552,1021.848,956.315,953.085,956.315,953.085C956.315,953.085,907.418,1001.983,907.418,1001.983C907.418,1001.983,815.437,910.018,815.437,910.018C815.437,910.018,913.679,811.776,913.679,811.776C913.679,811.776,1005.66,903.757,1005.66,903.757C1005.66,903.757,1024.459,884.958,1024.459,884.958C1024.459,884.941,1030.737,1008.26,887.552,1021.848C887.552,1021.848,887.552,1021.848,887.552,1021.848" class="icon-pen"/><glyph unicode="&#x004b;" d="M994.723,0.5C994.723,0.5,29.244,0.5,29.244,0.5C13.089,0.5,0,13.589,0,29.744C0,29.744,0,995.19,0,995.19C0,1011.345,13.089,1024.467,29.244,1024.467C29.244,1024.467,994.723,1024.467,994.723,1024.467C1010.878,1024.467,1023.967,1011.345,1023.967,995.19C1023.967,995.19,1023.967,29.744,1023.967,29.744C1023.967,13.589,1010.878,0.5,994.723,0.5C994.723,0.5,994.723,0.5,994.723,0.5M58.521,58.955C58.521,58.955,965.479,58.955,965.479,58.955C965.479,58.955,965.479,965.946,965.479,965.946C965.479,965.946,58.521,965.946,58.521,965.946C58.521,965.946,58.521,58.955,58.521,58.955C58.521,58.955,58.521,58.955,58.521,58.955M29.244,0.5C22.287,0.5,15.298,2.94,9.693,7.984C-2.308,18.765,-3.297,37.294,7.484,49.295C7.484,49.295,300.056,375.034,300.056,375.034C305.331,380.902,312.716,384.364,320.596,384.694C328.277,385.089,336.124,382.188,341.861,376.847C341.861,376.847,417.954,305.435,417.954,305.435C417.954,305.435,648.444,533.32,648.444,533.32C659.489,544.2,677.128,544.596,688.601,534.21C688.601,534.21,1014.34,240.683,1014.34,240.683C1020.505,235.144,1024,227.264,1024,218.956C1024,218.956,1024,29.777,1024,29.777C1024,13.622,1010.911,0.533,994.756,0.533C994.756,0.533,669.017,0.533,669.017,0.533C661.566,0.533,654.445,3.368,649.005,8.446C649.005,8.446,323.596,313.644,323.596,313.644C323.596,313.644,51.004,10.193,51.004,10.193C45.234,3.764,37.256,0.5,29.244,0.5C29.244,0.5,29.244,0.5,29.244,0.5M680.557,58.955C680.557,58.955,965.479,58.955,965.479,58.955C965.479,58.955,965.479,205.9,965.479,205.9C965.479,205.9,669.94,472.228,669.94,472.228C669.94,472.228,460.65,265.344,460.65,265.344C460.65,265.344,680.557,58.955,680.557,58.955C680.557,58.955,680.557,58.955,680.557,58.955M330.618,503.681C253.173,503.681,190.168,566.718,190.168,644.131C190.168,721.576,253.173,784.581,330.618,784.581C408.064,784.581,471.035,721.576,471.035,644.131C471.035,566.718,408.031,503.681,330.618,503.681C330.618,503.681,330.618,503.681,330.618,503.681M330.618,726.027C285.45,726.027,248.689,689.299,248.689,644.131C248.689,598.996,285.45,562.235,330.618,562.235C375.786,562.235,412.515,598.996,412.515,644.131C412.515,689.299,375.754,726.027,330.618,726.027C330.618,726.027,330.618,726.027,330.618,726.027" class="icon-photo"/><glyph unicode="&#x004c;" d="M493.331,1005.652C645.83,1005.652,789.185,934.278,881.837,815.984C881.837,815.984,1023.697,897.959,1023.697,897.959C1023.697,897.959,1024,428.707,1024,428.707C1024,428.707,617.459,663.076,617.459,663.076C617.459,663.076,748.118,738.684,748.118,738.684C683.932,810.573,591.576,853.86,493.331,853.86C304.999,853.86,151.794,700.66,151.794,512.323C151.794,323.992,305.002,170.779,493.331,170.779C493.331,170.779,493.331,19,493.331,19C221.323,19,0,240.298,0,512.321C0,784.334,221.315,1005.652,493.331,1005.652C493.331,1005.652,493.331,1005.652,493.331,1005.652" class="icon-redo"/><glyph unicode="&#x004d;" d="M882.163,136.486C882.163,136.486,142.932,136.486,142.932,136.486C120.355,136.486,102,117.986,102,95.554C102,95.554,102,40.93,102,40.93C102,18.353,120.5,0,142.932,0C142.932,0,881.871,0,881.871,0C904.448,0,922.801,18.5,922.801,40.93C922.801,40.93,922.801,95.554,922.801,95.554C923.241,118.277,904.741,136.486,882.163,136.486C882.163,136.486,882.163,136.486,882.163,136.486M483.924,209.752C491.937,201.74,502.424,197.662,512.765,197.662C523.253,197.662,533.741,201.74,541.606,209.752C541.606,209.752,821.568,489.714,821.568,489.714C837.446,505.59,837.446,531.518,821.568,547.687C821.568,547.687,782.822,586.433,782.822,586.433C766.944,602.311,741.016,602.311,724.848,586.433C724.848,586.433,580.935,442.373,580.935,442.373C580.935,442.373,580.935,983.068,580.935,983.068C580.935,1005.647,562.435,1024,540.005,1024C540.005,1024,485.381,1024,485.381,1024C462.804,1024,444.449,1005.793,444.449,983.068C444.449,983.068,444.449,442.228,444.449,442.228C444.449,442.228,300.391,586.288,300.391,586.288C284.513,602.164,258.44,602.164,242.418,586.288C242.418,586.288,203.672,547.542,203.672,547.542C187.796,531.666,187.796,505.592,203.672,489.569C203.672,489.569,483.924,209.752,483.924,209.752C483.924,209.752,483.924,209.752,483.924,209.752" class="icon-save"/><glyph unicode="&#x004e;" d="M512,575.94C450.103,575.94,399.748,525.585,399.748,463.691C399.748,401.794,450.103,351.44,512,351.44C573.897,351.44,624.252,401.794,624.252,463.691C624.252,525.585,573.897,575.94,512,575.94C512,575.94,512,575.94,512,575.94M938.953,803.879C938.953,803.879,907.168,803.879,907.168,803.879C907.168,803.879,907.168,815.621,907.168,815.621C907.168,862.591,869.091,900.668,822.121,900.668C822.121,900.668,597.047,900.668,597.047,900.668C550.077,900.668,512,862.591,512,815.621C512,815.621,512,803.879,512,803.879C512,803.879,85.047,803.879,85.047,803.879C38.077,803.879,0,765.802,0,718.829C0,718.829,0,208.547,0,208.547C0,161.577,38.077,123.5,85.047,123.5C85.047,123.5,938.953,123.5,938.953,123.5C985.923,123.5,1024,161.577,1024,208.547C1024,208.547,1024,718.829,1024,718.829C1024,765.802,985.923,803.879,938.953,803.879C938.953,803.879,938.953,803.879,938.953,803.879M157.82,575.94C119.863,575.94,89.095,606.708,89.095,644.664C89.095,682.621,119.863,713.389,157.82,713.389C195.776,713.389,226.545,682.621,226.545,644.664C226.545,606.711,195.776,575.94,157.82,575.94C157.82,575.94,157.82,575.94,157.82,575.94M512,213.99C374.317,213.99,262.299,326.008,262.299,463.691C262.299,601.375,374.317,713.389,512,713.389C649.683,713.389,761.701,601.375,761.701,463.691C761.701,326.008,649.683,213.99,512,213.99C512,213.99,512,213.99,512,213.99" class="icon-screenshot"/><glyph unicode="&#x004f;" d="M1009.282,193.848C1009.282,193.848,657.115,546.008,657.115,546.008C657.115,546.008,913.575,656.651,913.575,656.651C933.471,665.236,945.949,685.274,944.875,706.918C943.795,728.563,929.402,747.267,908.751,753.847C908.751,753.847,68.216,1021.552,68.216,1021.552C49.702,1027.44,29.453,1022.522,15.722,1008.784C1.984,995.049,-2.944,974.8,2.95,956.29C2.95,956.29,270.659,115.748,270.659,115.748C277.232,95.097,295.943,80.701,317.588,79.62C339.232,78.543,359.266,91.028,367.851,110.923C367.851,110.923,478.494,367.381,478.494,367.381C478.494,367.381,830.658,15.217,830.658,15.217C840.4,5.475,853.608,0,867.381,0C881.161,0,894.379,5.472,904.111,15.217C904.111,15.217,1009.275,120.385,1009.275,120.385C1029.569,140.672,1029.569,173.561,1009.282,193.848C1009.282,193.848,1009.282,193.848,1009.282,193.848" class="icon-select"/><glyph unicode="&#x0050;" d="M986.531,587.044C986.531,587.044,885.095,603.966,885.095,603.966C877.723,634.107,866.974,662.918,852.974,689.791C852.974,689.791,917.911,770.305,917.911,770.305C931.722,787.321,931.094,811.803,916.533,828.226C916.533,828.226,876.191,873.629,876.191,873.629C861.567,890.034,837.316,893.504,818.819,881.817C818.819,881.817,732.071,827.286,732.071,827.286C693.917,853.944,650.698,873.629,604.075,885.051C604.075,885.051,587.104,987.031,587.104,987.031C583.543,1008.625,564.857,1024.469,542.921,1024.469C542.921,1024.469,482.125,1024.469,482.125,1024.469C460.235,1024.469,441.485,1008.625,438.003,987.031C438.003,987.031,420.94,885.019,420.94,885.019C382.393,875.582,346.253,860.348,313.271,840.285C313.271,840.285,230.773,899.161,230.773,899.161C212.993,911.863,188.572,909.877,173.056,894.394C173.056,894.394,130.105,851.412,130.105,851.412C114.622,835.896,112.636,811.475,125.371,793.695C125.371,793.695,184.384,711.039,184.384,711.039C164.51,678.307,149.432,642.372,139.996,604.168C139.996,604.168,37.435,587.043,37.435,587.043C15.875,583.482,0,564.794,0,542.858C0,542.858,0,482.11,0,482.11C0,460.176,15.875,441.486,37.435,437.925C37.435,437.925,139.996,420.8,139.996,420.8C147.745,389.363,158.995,359.334,173.948,331.492C173.948,331.492,109.308,251.432,109.308,251.432C95.544,234.433,96.122,209.934,110.683,193.526C110.683,193.526,150.994,148.122,150.994,148.122C165.619,131.686,189.882,128.279,208.383,139.936C208.383,139.936,296.38,195.214,296.38,195.214C333.614,169.747,375.738,151.028,420.94,139.936C420.94,139.936,438.003,37.939,438.003,37.939C441.487,16.344,460.235,0.5,482.125,0.5C482.125,0.5,542.921,0.5,542.921,0.5C564.857,0.5,583.543,16.343,587.104,37.938C587.104,37.938,604.104,139.935,604.104,139.935C642.169,149.245,677.851,164.214,710.539,183.934C710.539,183.934,796.475,122.558,796.475,122.558C814.223,109.81,838.663,111.81,854.163,127.342C854.163,127.342,897.131,170.309,897.131,170.309C912.595,185.778,914.69,210.185,901.847,227.997C901.847,227.997,840.665,313.777,840.665,313.777C860.597,346.619,875.754,382.618,885.131,420.992C885.131,420.992,986.566,437.928,986.566,437.928C1008.189,441.489,1024,460.178,1024,482.113C1024,482.113,1024,542.861,1024,542.861C1023.968,564.794,1008.157,583.482,986.531,587.044C986.531,587.044,986.531,587.044,986.531,587.044M513.608,320.49C407.595,320.49,321.614,406.487,321.614,512.484C321.614,618.497,407.595,704.478,513.608,704.478C619.603,704.478,705.6,618.497,705.6,512.484C705.6,406.487,619.603,320.49,513.608,320.49C513.608,320.49,513.608,320.49,513.608,320.49" class="icon-settings"/><glyph unicode="&#x0051;" d="M91.428,713.643C91.428,713.643,932.568,713.643,932.568,713.643C983.061,713.643,1024,754.578,1024,805.071C1024,855.564,983.065,896.499,932.568,896.499C932.568,896.499,91.428,896.499,91.428,896.499C40.935,896.495,0,855.564,0,805.067C0,754.574,40.935,713.643,91.428,713.643C91.428,713.643,91.428,713.643,91.428,713.643M932.568,603.928C932.568,603.928,91.428,603.928,91.428,603.928C40.935,603.928,0,562.993,0,512.499C0,462.002,40.935,421.071,91.428,421.071C91.428,421.071,932.568,421.071,932.568,421.071C983.061,421.071,1024,462.002,1024,512.499C1024,562.993,983.061,603.928,932.568,603.928C932.568,603.928,932.568,603.928,932.568,603.928M932.568,311.356C932.568,311.356,91.428,311.356,91.428,311.356C40.935,311.356,0,270.425,0,219.928C0,169.435,40.935,128.5,91.428,128.5C91.428,128.5,932.568,128.5,932.568,128.5C983.061,128.5,1024,169.435,1024,219.928C1024,270.425,983.061,311.356,932.568,311.356C932.568,311.356,932.568,311.356,932.568,311.356" class="icon-sidebar"/><glyph unicode="&#x0052;" d="M1024,33.302C1024,14.913,1009.089,0,990.698,0C990.698,0,33.302,0,33.302,0C14.906,0,0,14.911,0,33.302C0,33.302,0,990.698,0,990.698C0,1009.094,14.906,1024,33.302,1024C33.302,1024,990.698,1024,990.698,1024C1009.089,1024,1024,1009.094,1024,990.698C1024,990.698,1024,33.302,1024,33.302C1024,33.302,1024,33.302,1024,33.302" class="icon-square"/><glyph unicode="&#x0053;" d="M616.548,400.032C628.056,456.644,645.842,544.526,645.958,544.641C679.553,584.048,700.244,746.791,700.244,806.541C700.244,926.971,616.083,1024.5,512.16,1024.5C408.237,1024.5,324.076,926.854,324.076,806.541C324.076,746.791,344.767,584.049,378.362,544.641C378.362,544.641,396.263,456.644,407.772,400.032C407.772,400.032,616.548,400.032,616.548,400.032C616.548,400.032,616.548,400.032,616.548,400.032M86.122,102.562C85.309,102.562,84.495,102.562,83.681,102.678C83.681,102.678,83.681,58.622,83.681,58.622C83.681,26.538,109.72,0.5,141.804,0.5C141.804,0.5,882.516,0.5,882.516,0.5C914.601,0.5,940.639,26.538,940.639,58.622C940.639,58.622,940.639,102.678,940.639,102.678C939.826,102.678,939.012,102.562,938.197,102.562C938.197,102.562,86.122,102.562,86.122,102.562C86.122,102.562,86.122,102.562,86.122,102.562M958.308,145.921C964.819,148.362,970.746,151.85,975.977,156.267C988.415,166.96,996.32,182.771,996.32,200.44C996.32,200.44,996.32,302.038,996.32,302.038C996.32,334.123,970.281,360.161,938.197,360.161C938.197,360.161,608.527,360.161,608.527,360.161C608.527,360.161,415.792,360.161,415.792,360.161C415.792,360.161,86.122,360.161,86.122,360.161C54.039,360.161,28,334.123,28,302.038C28,302.038,28,200.441,28,200.441C28,182.772,35.905,166.962,48.343,156.268C53.574,151.85,59.502,148.362,66.012,145.922C71.592,143.83,77.52,142.667,83.681,142.435C84.495,142.435,85.309,142.319,86.122,142.319C86.122,142.319,938.081,142.319,938.081,142.319C938.894,142.319,939.707,142.319,940.522,142.435C946.8,142.666,952.728,143.945,958.308,145.921C958.308,145.921,958.308,145.921,958.308,145.921" class="icon-stamp"/><glyph unicode="&#x0054;" d="M512,954.487C512,954.487,0,70.5,0,70.5C0,70.5,1024,70.5,1024,70.5C1024,70.5,512,954.487,512,954.487C512,954.487,512,954.487,512,954.487C512,954.487,512,954.487,512,954.487" class="icon-triangle"/><glyph unicode="&#x0055;" d="M0,1004.816C0,1004.816,820.629,1004.816,820.629,1004.816C820.629,1004.816,820.629,793.014,820.629,793.014C820.629,793.014,692.656,793.381,692.656,793.381C692.656,793.381,692.656,845.476,692.656,845.476C692.656,872.116,671.957,893.922,645.425,895.368C645.425,895.368,482.122,895.368,482.122,895.368C482.122,895.368,482.122,191.803,482.122,191.803C483.263,161.647,507.69,138.091,537.91,138.091C537.91,138.091,583.196,138.091,583.196,138.091C583.196,138.091,583.569,21.669,583.569,21.669C583.569,21.669,237.267,21.669,237.267,21.669C237.267,21.669,237.651,138.091,237.651,138.091C237.651,138.091,282.926,138.091,282.926,138.091C312.704,138.091,337.08,161.251,338.674,190.914C338.674,190.914,338.674,895.373,338.674,895.373C338.674,895.373,175.216,895.373,175.216,895.373C148.684,893.928,127.985,872.116,127.985,845.481C127.985,845.481,127.985,793.387,127.985,793.387C127.985,793.387,0,793.014,0,793.014C0,793.014,0,1004.816,0,1004.816C0,1004.816,0,1004.816,0,1004.816M937.969,20C937.969,20,1024,20,1024,20C1024,20,1024,1004.816,1024,1004.816C1024,1004.816,937.969,1004.816,937.969,1004.816C937.969,1004.816,937.969,20,937.969,20C937.969,20,937.969,20,937.969,20" class="icon-typography"/><glyph unicode="&#x0056;" d="M530.627,1005.652C378.157,1005.652,234.807,934.278,142.088,815.984C142.088,815.984,0.305,897.959,0.305,897.959C0.305,897.959,0,428.707,0,428.707C0,428.707,406.511,663.076,406.511,663.076C406.511,663.076,275.835,738.684,275.835,738.684C340.025,810.573,432.376,853.86,530.627,853.86C718.916,853.86,872.189,700.66,872.189,512.323C872.189,323.992,718.918,170.779,530.627,170.779C530.627,170.779,530.627,19,530.627,19C802.677,19,1024,240.3,1024,512.321C1024,784.334,802.677,1005.652,530.627,1005.652C530.627,1005.652,530.627,1005.652,530.627,1005.652" class="icon-undo"/><glyph unicode="&#x0057;" d="M990.189,197.559C990.189,197.559,782.778,404.97,782.778,404.97C769.628,418.12,748.312,418.12,735.165,404.97C735.165,404.97,723.478,393.283,723.478,393.283C723.478,393.283,662.102,454.66,662.102,454.66C760.21,596.236,746.218,791.996,620.11,918.104C478.249,1059.965,248.251,1059.965,106.394,918.104C-35.463,776.244,-35.466,546.246,106.394,404.389C232.505,278.28,428.263,264.289,569.839,362.397C569.839,362.397,631.215,301.02,631.215,301.02C631.215,301.02,619.528,289.333,619.528,289.333C606.379,276.187,606.379,254.867,619.528,241.721C619.528,241.721,826.939,34.31,826.939,34.31C872.019,-10.77,945.112,-10.77,990.192,34.31C1035.272,79.389,1035.268,152.479,990.189,197.559C990.189,197.559,990.189,197.559,990.189,197.559M160.096,458.094C48.079,570.111,48.079,752.378,160.093,864.396C272.113,976.413,454.384,976.416,566.398,864.399C566.398,864.399,566.398,864.396,566.398,864.396C678.418,752.378,678.418,570.111,566.398,458.094C510.391,402.084,436.819,374.08,363.247,374.08C289.675,374.08,216.103,402.084,160.096,458.094C160.096,458.094,160.096,458.094,160.096,458.094" class="icon-zoom"/></font>
</defs>
</svg>
